<svg xmlns="http://www.w3.org/2000/svg" viewBox="0 0 1440 900">
  <rect width="1440" height="900" fill="#08111f" rx="40" />
  <circle cx="200" cy="160" r="220" fill="rgba(20,184,166,0.16)" />
  <rect x="86" y="78" width="1268" height="92" rx="28" fill="rgba(255,255,255,0.07)" />
  <text x="126" y="136" fill="#f8fafc" font-family="Space Grotesk, Arial, sans-serif" font-size="36" font-weight="700">AI Customer Insights</text>
  <rect x="90" y="214" width="1260" height="580" rx="34" fill="#f8fafc" />
  <rect x="128" y="252" width="226" height="126" rx="24" fill="#ecfeff" />
  <rect x="382" y="252" width="226" height="126" rx="24" fill="#ecfeff" />
  <rect x="636" y="252" width="226" height="126" rx="24" fill="#ecfeff" />
  <rect x="890" y="252" width="226" height="126" rx="24" fill="#ecfeff" />
  <text x="160" y="308" fill="#64748b" font-family="Manrope, Arial, sans-serif" font-size="18">Tickets</text>
  <text x="178" y="348" fill="#0f172a" font-family="Space Grotesk, Arial, sans-serif" font-size="42" font-weight="700">16</text>
  <text x="412" y="308" fill="#64748b" font-family="Manrope, Arial, sans-serif" font-size="18">Feature requests</text>
  <text x="454" y="348" fill="#0f172a" font-family="Space Grotesk, Arial, sans-serif" font-size="42" font-weight="700">5</text>
  <text x="666" y="308" fill="#64748b" font-family="Manrope, Arial, sans-serif" font-size="18">Bug reports</text>
  <text x="708" y="348" fill="#0f172a" font-family="Space Grotesk, Arial, sans-serif" font-size="42" font-weight="700">6</text>
  <text x="922" y="308" fill="#64748b" font-family="Manrope, Arial, sans-serif" font-size="18">Avg sentiment</text>
  <text x="968" y="348" fill="#0f172a" font-family="Space Grotesk, Arial, sans-serif" font-size="42" font-weight="700">-0.14</text>
  <rect x="128" y="416" width="540" height="172" rx="28" fill="#ffffff" />
  <rect x="692" y="416" width="618" height="172" rx="28" fill="#ffffff" />
  <rect x="128" y="618" width="560" height="134" rx="28" fill="#ffffff" />
  <rect x="714" y="618" width="596" height="134" rx="28" fill="#ffffff" />
  <rect x="168" y="478" width="74" height="72" rx="18" fill="#0f766e" />
  <rect x="260" y="442" width="74" height="108" rx="18" fill="#14b8a6" />
  <rect x="352" y="466" width="74" height="84" rx="18" fill="#2dd4bf" />
  <rect x="444" y="424" width="74" height="126" rx="18" fill="#fb923c" />
  <polyline points="734,536 806,504 878,522 950,460 1022,482 1094,436 1166,452 1238,420" fill="none" stroke="#14b8a6" stroke-width="8" stroke-linecap="round" stroke-linejoin="round" />
  <rect x="168" y="650" width="120" height="70" rx="18" fill="#ffe4e6" />
  <rect x="304" y="650" width="120" height="70" rx="18" fill="#e0f2fe" />
  <rect x="440" y="650" width="120" height="70" rx="18" fill="#ecfccb" />
  <rect x="754" y="650" width="120" height="70" rx="18" fill="#fef3c7" />
  <rect x="890" y="650" width="120" height="70" rx="18" fill="#ecfeff" />
  <rect x="1026" y="650" width="120" height="70" rx="18" fill="#dbeafe" />
</svg>

