<svg xmlns="http://www.w3.org/2000/svg" viewBox="0 0 1440 900">
  <rect width="1440" height="900" fill="#0a1223" rx="40" />
  <circle cx="1180" cy="160" r="220" fill="rgba(59,130,246,0.14)" />
  <rect x="84" y="80" width="1272" height="94" rx="28" fill="rgba(255,255,255,0.07)" />
  <text x="126" y="138" fill="#f8fafc" font-family="Space Grotesk, Arial, sans-serif" font-size="36" font-weight="700">Product Analytics Dashboard</text>
  <rect x="84" y="214" width="264" height="578" rx="32" fill="rgba(255,255,255,0.08)" stroke="rgba(255,255,255,0.1)" />
  <text x="124" y="268" fill="#93c5fd" font-family="Space Grotesk, Arial, sans-serif" font-size="24" font-weight="700">Filters</text>
  <rect x="124" y="304" width="184" height="56" rx="20" fill="#e2e8f0" />
  <rect x="124" y="384" width="184" height="56" rx="20" fill="#e2e8f0" />
  <rect x="124" y="464" width="184" height="56" rx="20" fill="#e2e8f0" />
  <rect x="386" y="214" width="970" height="578" rx="32" fill="#f8fafc" />
  <rect x="428" y="250" width="206" height="116" rx="24" fill="#eff6ff" />
  <rect x="658" y="250" width="206" height="116" rx="24" fill="#eff6ff" />
  <rect x="888" y="250" width="206" height="116" rx="24" fill="#eff6ff" />
  <rect x="1118" y="250" width="196" height="116" rx="24" fill="#eff6ff" />
  <text x="458" y="308" fill="#64748b" font-family="Manrope, Arial, sans-serif" font-size="18">Unique users</text>
  <text x="472" y="344" fill="#0f172a" font-family="Space Grotesk, Arial, sans-serif" font-size="42" font-weight="700">8</text>
  <text x="694" y="308" fill="#64748b" font-family="Manrope, Arial, sans-serif" font-size="18">Events</text>
  <text x="696" y="344" fill="#0f172a" font-family="Space Grotesk, Arial, sans-serif" font-size="42" font-weight="700">47</text>
  <text x="916" y="308" fill="#64748b" font-family="Manrope, Arial, sans-serif" font-size="18">Average DAU</text>
  <text x="944" y="344" fill="#0f172a" font-family="Space Grotesk, Arial, sans-serif" font-size="42" font-weight="700">3.2</text>
  <text x="1146" y="308" fill="#64748b" font-family="Manrope, Arial, sans-serif" font-size="18">Tracked features</text>
  <text x="1172" y="344" fill="#0f172a" font-family="Space Grotesk, Arial, sans-serif" font-size="42" font-weight="700">5</text>
  <rect x="428" y="398" width="436" height="164" rx="26" fill="#ffffff" />
  <rect x="886" y="398" width="428" height="164" rx="26" fill="#ffffff" />
  <polyline points="456,520 520,472 596,488 672,430 748,446 824,414" fill="none" stroke="#2563eb" stroke-width="8" stroke-linecap="round" stroke-linejoin="round" />
  <rect x="926" y="446" width="60" height="86" rx="18" fill="#0f766e" />
  <rect x="1006" y="420" width="60" height="112" rx="18" fill="#14b8a6" />
  <rect x="1086" y="470" width="60" height="62" rx="18" fill="#0ea5e9" />
  <rect x="1166" y="392" width="60" height="140" rx="18" fill="#fb923c" />
  <rect x="428" y="590" width="886" height="156" rx="26" fill="#ffffff" />
  <rect x="462" y="620" width="820" height="98" rx="20" fill="#dbeafe" />
  <rect x="462" y="620" width="164" height="98" rx="20" fill="#60a5fa" />
  <rect x="626" y="620" width="164" height="98" rx="20" fill="#93c5fd" />
  <rect x="790" y="620" width="164" height="98" rx="20" fill="#bfdbfe" />
  <rect x="954" y="620" width="164" height="98" rx="20" fill="#dbeafe" />
</svg>

