<svg xmlns="http://www.w3.org/2000/svg" viewBox="0 0 1440 900">
  <rect width="1440" height="900" fill="#08111f" rx="40" />
  <circle cx="1180" cy="150" r="220" fill="rgba(251,146,60,0.14)" />
  <rect x="82" y="78" width="1276" height="92" rx="28" fill="rgba(255,255,255,0.07)" />
  <text x="124" y="136" fill="#f8fafc" font-family="Space Grotesk, Arial, sans-serif" font-size="36" font-weight="700">Product Teardowns</text>
  <rect x="90" y="214" width="286" height="584" rx="34" fill="rgba(255,255,255,0.08)" stroke="rgba(255,255,255,0.12)" />
  <text x="130" y="270" fill="#fdba74" font-family="Space Grotesk, Arial, sans-serif" font-size="24" font-weight="700">Teardown Library</text>
  <rect x="128" y="314" width="210" height="56" rx="18" fill="#ffedd5" />
  <rect x="128" y="392" width="210" height="56" rx="18" fill="#ffedd5" />
  <rect x="128" y="470" width="210" height="56" rx="18" fill="#ffedd5" />
  <rect x="128" y="548" width="210" height="56" rx="18" fill="#ffedd5" />
  <rect x="128" y="626" width="210" height="56" rx="18" fill="#ffedd5" />
  <rect x="410" y="214" width="940" height="584" rx="34" fill="#f8fafc" />
  <rect x="450" y="256" width="208" height="122" rx="24" fill="#fff7ed" />
  <rect x="680" y="256" width="208" height="122" rx="24" fill="#fff7ed" />
  <rect x="910" y="256" width="208" height="122" rx="24" fill="#fff7ed" />
  <rect x="1140" y="256" width="170" height="122" rx="24" fill="#fff7ed" />
  <text x="484" y="312" fill="#64748b" font-family="Manrope, Arial, sans-serif" font-size="18">Category</text>
  <text x="484" y="354" fill="#0f172a" font-family="Space Grotesk, Arial, sans-serif" font-size="34" font-weight="700">Streaming</text>
  <text x="714" y="312" fill="#64748b" font-family="Manrope, Arial, sans-serif" font-size="18">Primary user</text>
  <text x="714" y="354" fill="#0f172a" font-family="Space Grotesk, Arial, sans-serif" font-size="34" font-weight="700">Consumers</text>
  <rect x="450" y="422" width="860" height="326" rx="28" fill="#ffffff" />
  <rect x="484" y="470" width="792" height="32" rx="16" fill="#e2e8f0" />
  <rect x="484" y="524" width="740" height="32" rx="16" fill="#e2e8f0" />
  <rect x="484" y="578" width="706" height="32" rx="16" fill="#e2e8f0" />
  <rect x="484" y="632" width="648" height="32" rx="16" fill="#e2e8f0" />
</svg>
