<svg xmlns="http://www.w3.org/2000/svg" viewBox="0 0 1440 900">
  <rect width="1440" height="900" fill="#08111f" rx="40" />
  <circle cx="240" cy="150" r="210" fill="rgba(34,197,94,0.16)" />
  <rect x="84" y="78" width="1272" height="92" rx="28" fill="rgba(255,255,255,0.07)" />
  <text x="126" y="136" fill="#f8fafc" font-family="Space Grotesk, Arial, sans-serif" font-size="36" font-weight="700">AI Sports Predictor</text>
  <rect x="92" y="214" width="1260" height="586" rx="34" fill="#f8fafc" />
  <rect x="128" y="252" width="266" height="504" rx="28" fill="#ecfdf5" />
  <text x="160" y="304" fill="#166534" font-family="Space Grotesk, Arial, sans-serif" font-size="24" font-weight="700">Prediction Inputs</text>
  <rect x="160" y="344" width="202" height="52" rx="18" fill="#d1fae5" />
  <rect x="160" y="418" width="202" height="52" rx="18" fill="#d1fae5" />
  <rect x="160" y="492" width="202" height="52" rx="18" fill="#d1fae5" />
  <rect x="160" y="566" width="202" height="52" rx="18" fill="#d1fae5" />
  <rect x="160" y="648" width="170" height="58" rx="29" fill="#14b8a6" />
  <text x="186" y="684" fill="#08111f" font-family="Space Grotesk, Arial, sans-serif" font-size="22" font-weight="700">Predict outcome</text>
  <rect x="432" y="252" width="278" height="170" rx="28" fill="#ffffff" />
  <rect x="734" y="252" width="278" height="170" rx="28" fill="#ffffff" />
  <text x="466" y="314" fill="#64748b" font-family="Manrope, Arial, sans-serif" font-size="18">Accuracy</text>
  <text x="476" y="370" fill="#0f172a" font-family="Space Grotesk, Arial, sans-serif" font-size="48" font-weight="700">78%</text>
  <text x="768" y="314" fill="#64748b" font-family="Manrope, Arial, sans-serif" font-size="18">ROC-AUC</text>
  <text x="776" y="370" fill="#0f172a" font-family="Space Grotesk, Arial, sans-serif" font-size="48" font-weight="700">81%</text>
  <rect x="1044" y="252" width="266" height="170" rx="28" fill="#ffffff" />
  <circle cx="1178" cy="336" r="74" fill="#ecfeff" stroke="#14b8a6" stroke-width="18" stroke-dasharray="340 120" />
  <text x="1134" y="350" fill="#0f172a" font-family="Space Grotesk, Arial, sans-serif" font-size="42" font-weight="700">64%</text>
  <rect x="432" y="454" width="430" height="302" rx="28" fill="#ffffff" />
  <rect x="888" y="454" width="422" height="302" rx="28" fill="#ffffff" />
  <rect x="472" y="620" width="62" height="90" rx="16" fill="#fb923c" />
  <rect x="560" y="570" width="62" height="140" rx="16" fill="#14b8a6" />
  <rect x="648" y="534" width="62" height="176" rx="16" fill="#0f766e" />
  <rect x="736" y="592" width="62" height="118" rx="16" fill="#2dd4bf" />
  <polyline points="930,690 992,646 1054,662 1116,608 1178,626 1240,570" fill="none" stroke="#16a34a" stroke-width="8" stroke-linecap="round" stroke-linejoin="round" />
</svg>

